<svg width="50" height="10" viewBox="0 0 50 10" fill="none" xmlns="http://www.w3.org/2000/svg">
<path d="M3.15738 9.33116C2.5306 9.33116 1.98071 9.21814 1.50772 8.99218C1.03472 8.76049 0.665193 8.44125 0.399129 8.03445C0.133065 7.62199 0 7.14737 0 6.61065V6.60216C0 6.06538 0.13892 5.6049 0.416823 5.22073C0.700647 4.83649 1.10859 4.53422 1.64078 4.31385C2.17291 4.08788 2.82034 3.95224 3.58308 3.90705L7.17497 3.70365V5.09357L3.89348 5.29697C3.34359 5.32525 2.92381 5.44669 2.63406 5.66141C2.35031 5.87612 2.20836 6.16142 2.20836 6.51743V6.53434C2.20836 6.9016 2.3532 7.19256 2.64294 7.40728C2.93861 7.61633 3.32879 7.72086 3.81362 7.72086C4.23939 7.72086 4.6178 7.63896 4.94885 7.4751C5.28589 7.31123 5.55195 7.08803 5.74711 6.80556C5.9422 6.52303 6.03975 6.20385 6.03975 5.84783V3.13581C6.03975 2.68382 5.88899 2.32787 5.58747 2.06794C5.29181 1.80804 4.86315 1.67808 4.30142 1.67808C3.78113 1.67808 3.36431 1.78261 3.05095 1.99166C2.73753 2.20071 2.54244 2.4691 2.46555 2.79683L2.44785 2.87308H0.399129L0.407942 2.77986C0.455302 2.24308 0.641513 1.76566 0.966709 1.34755C1.29783 0.929443 1.75017 0.601734 2.32367 0.364429C2.90309 0.121474 3.589 0 4.38127 0C5.16762 0 5.84761 0.124303 6.42111 0.372909C7.00053 0.615864 7.44696 0.963341 7.76031 1.41535C8.07966 1.86171 8.2393 2.38714 8.2393 2.99175V9.1786H6.03975V7.80565H5.98653C5.8092 8.11641 5.57563 8.38757 5.28589 8.61925C5.00206 8.84522 4.67983 9.0204 4.31918 9.14473C3.95853 9.26899 3.57124 9.33116 3.15738 9.33116ZM8.47515 9.1786L11.5172 4.69525L8.51067 0.177975H10.994L12.8831 3.33921H12.9363L14.8165 0.177975H17.2288L14.1957 4.62743L17.2022 9.1786H14.7899L12.8299 5.95802H12.7766L10.8343 9.1786H8.47515ZM20.1254 9.33116C19.4987 9.33116 18.9488 9.21814 18.4758 8.99218C18.0028 8.76049 17.6333 8.44125 17.3672 8.03445C17.1011 7.62199 16.9681 7.14737 16.9681 6.61065V6.60216C16.9681 6.06538 17.1071 5.6049 17.385 5.22073C17.6688 4.83649 18.0767 4.53422 18.6088 4.31385C19.141 4.08788 19.7884 3.95224 20.5511 3.90705L24.1431 3.70365V5.09357L20.8615 5.29697C20.3117 5.32525 19.8919 5.44669 19.6022 5.66141C19.3184 5.87612 19.1765 6.16142 19.1765 6.51743V6.53434C19.1765 6.9016 19.3213 7.19256 19.6111 7.40728C19.9067 7.61633 20.2969 7.72086 20.7818 7.72086C21.2075 7.72086 21.5859 7.63896 21.917 7.4751C22.254 7.31123 22.5201 7.08803 22.7152 6.80556C22.9103 6.52303 23.0079 6.20385 23.0079 5.84783V3.13581C23.0079 2.68382 22.8571 2.32787 22.5555 2.06794C22.2599 1.80804 21.8313 1.67808 21.2695 1.67808C20.7493 1.67808 20.3324 1.78261 20.019 1.99166C19.7057 2.20071 19.5105 2.4691 19.4337 2.79683L19.4159 2.87308H17.3672L17.3761 2.77986C17.4234 2.24308 17.6096 1.76566 17.9348 1.34755C18.2659 0.929443 18.7182 0.601734 19.2918 0.364429C19.8712 0.121474 20.5571 0 21.3493 0C22.1358 0 22.8157 0.124303 23.3892 0.372909C23.9687 0.615864 24.4151 0.963341 24.7284 1.41535C25.0477 1.86171 25.2074 2.38714 25.2074 2.99175V9.1786H23.0079V7.80565H22.9547C22.7773 8.11641 22.5437 8.38757 22.254 8.61925C21.9702 8.84522 21.648 9.0204 21.2873 9.14473C20.9266 9.26899 20.5393 9.33116 20.1254 9.33116ZM26.1262 9.1786V0.177975H28.3345V1.61875H28.3789C28.5799 1.13285 28.9111 0.742989 29.3722 0.449184C29.8334 0.149728 30.3744 0 30.9952 0C31.4328 0 31.826 0.0706245 32.1748 0.211879C32.5237 0.353128 32.8193 0.559363 33.0617 0.830565C33.31 1.09612 33.4904 1.421 33.6027 1.80521H33.6559C33.8097 1.4323 34.0284 1.11307 34.3123 0.847517C34.602 0.576309 34.939 0.367258 35.3233 0.220352C35.7135 0.0734529 36.1333 0 36.5827 0C37.2035 0 37.7445 0.124303 38.2057 0.372909C38.6669 0.621508 39.0246 0.97182 39.2789 1.42383C39.5331 1.87019 39.6602 2.39563 39.6602 3.00023V9.1786H37.4608V3.52564C37.4608 3.14713 37.3927 2.83071 37.2567 2.57646C37.1267 2.31655 36.9374 2.11881 36.6891 1.98319C36.4408 1.84758 36.1333 1.77978 35.7668 1.77978C35.412 1.77978 35.0986 1.85889 34.8266 2.01709C34.5546 2.16966 34.3418 2.38438 34.1881 2.66119C34.0403 2.93807 33.9663 3.25731 33.9663 3.61892V9.1786H31.8201V3.41552C31.8201 3.07648 31.7521 2.78552 31.6161 2.54252C31.4801 2.29393 31.2879 2.10466 31.0396 1.97472C30.7913 1.84476 30.4956 1.77978 30.1527 1.77978C29.7979 1.77978 29.4816 1.86171 29.2037 2.02557C28.9317 2.1894 28.7189 2.4126 28.5651 2.69513C28.4114 2.97761 28.3345 3.30251 28.3345 3.66977V9.1786H26.1262ZM44.7208 9.35661C43.7984 9.35661 42.9943 9.17012 42.3085 8.7972C41.6286 8.41868 41.1023 7.87907 40.7298 7.17848C40.3573 6.47783 40.1711 5.64443 40.1711 4.67828V4.66131C40.1711 3.70082 40.3603 2.87308 40.7387 2.17815C41.1171 1.4775 41.6463 0.940744 42.3263 0.567836C43.0121 0.189277 43.8106 0 44.7208 0C45.637 0 46.4355 0.189277 47.1157 0.567836C47.8012 0.940744 48.3333 1.47468 48.712 2.16966C49.0901 2.86459 49.2798 3.69516 49.2798 4.66131V4.67828C49.2798 5.65009 49.0901 6.48632 48.712 7.18697C48.3394 7.8819 47.8099 8.41868 47.1244 8.7972C46.4443 9.17012 45.6431 9.35661 44.7208 9.35661ZM44.7295 7.65311C45.2024 7.65311 45.6108 7.53726 45.9539 7.30558C46.2963 7.0683 46.56 6.72926 46.743 6.28858C46.932 5.84783 47.0269 5.31111 47.0269 4.67828V4.66131C47.0269 4.0398 46.932 3.50873 46.743 3.06799C46.5539 2.62166 46.2848 2.28261 45.9357 2.05099C45.5933 1.81934 45.1876 1.70351 44.7208 1.70351C44.2599 1.70351 43.855 1.82216 43.5058 2.05946C43.1629 2.2911 42.8938 2.62731 42.6987 3.06799C42.5095 3.50873 42.4149 4.0398 42.4149 4.66131V4.67828C42.4149 5.31111 42.5095 5.84783 42.6987 6.28858C42.8879 6.72926 43.1569 7.0683 43.5058 7.30558C43.855 7.53726 44.2626 7.65311 44.7295 7.65311Z" fill="black"/>
</svg>
