<svg width="125" height="25" viewBox="0 0 125 25" fill="none" xmlns="http://www.w3.org/2000/svg">
<path d="M7.14948 7.1166C7.14948 6.5666 7.24948 6.0166 7.43281 5.49993C7.61615 4.9666 7.89948 4.4666 8.24948 3.98326C8.94948 3.04993 9.98281 2.28326 11.1495 1.83326C12.3161 1.38326 13.6328 1.24993 14.9161 1.4666C16.1995 1.68326 17.4328 2.23326 18.4495 3.04993C19.4661 3.8666 20.2661 4.94993 20.7495 6.14993C21.2161 7.3666 21.3661 8.64993 21.1661 9.89993C20.9661 11.1333 20.4328 12.2833 19.6495 13.1666C19.2661 13.5999 18.8161 13.9833 18.3328 14.2833C17.8495 14.5833 17.3328 14.7999 16.7995 14.8999C17.9495 13.0833 18.2661 11.3166 18.0161 9.79993C17.9828 9.6166 17.9495 9.4166 17.8995 9.24993C17.8495 9.0666 17.7995 8.88326 17.7328 8.7166C17.6161 8.3666 17.4495 8.04993 17.2828 7.73326C16.9328 7.1166 16.4661 6.59993 15.9328 6.1666C14.8495 5.29993 13.4661 4.8166 11.9161 4.89993C10.3661 4.98326 8.69948 5.64993 7.13281 7.14993" fill="#FF2D78"/>
<path d="M11.4488 22.9333C10.5155 23.5 9.33213 23.7 8.16546 23.5666C6.99879 23.4333 5.81546 22.95 4.83213 22.1666C3.84879 21.3833 3.04879 20.3166 2.59879 19.1166C2.36546 18.5166 2.21546 17.8833 2.14879 17.2333C2.06546 16.5833 2.09879 15.9333 2.19879 15.2833C2.38213 13.9833 2.94879 12.75 3.74879 11.75C4.56546 10.75 5.61546 9.94998 6.79879 9.49998C7.38213 9.26665 7.99879 9.13332 8.61546 9.08332C8.78213 9.06665 8.88213 9.08332 9.06546 9.06665C9.23213 9.06665 9.38213 9.06665 9.53213 9.06665C9.83213 9.06665 10.1321 9.11665 10.4155 9.16665C10.9988 9.28332 11.5488 9.46665 12.0488 9.74998C12.5488 10.0167 12.9988 10.3666 13.3488 10.7666C12.7988 10.7666 12.2988 10.7667 11.8155 10.8333C11.3321 10.9 10.8821 10.9833 10.4655 11.1333C10.2488 11.2 10.0488 11.2833 9.84879 11.35C9.74879 11.4 9.64879 11.4333 9.56546 11.4833C9.49879 11.5167 9.34879 11.5833 9.26546 11.6166C8.89879 11.8166 8.56546 12.0333 8.26546 12.2666C7.66546 12.75 7.19879 13.3166 6.83213 13.9333C6.48213 14.55 6.23213 15.2167 6.13213 15.9C6.08213 16.2333 6.04879 16.5833 6.06546 16.9333C6.06546 17.2833 6.11546 17.6333 6.19879 17.9833C6.34879 18.6833 6.63213 19.35 7.06546 20C7.49879 20.6333 8.06546 21.25 8.79879 21.75C9.16546 22 9.56546 22.2333 9.99879 22.4333C10.4488 22.6333 10.9321 22.8 11.4488 22.95" fill="#FF2D78"/>
<path d="M23.0844 11.3333C24.0511 11.8499 24.8011 12.7666 25.2678 13.8499C25.7344 14.9166 25.9011 16.1833 25.7011 17.4166C25.5178 18.6499 24.9678 19.8499 24.1511 20.8499C23.3344 21.8499 22.2344 22.6499 21.0178 23.1166C19.8011 23.5833 18.4678 23.7499 17.1678 23.5499C16.5178 23.4499 15.9011 23.2833 15.3011 23.0333C15.0011 22.8999 14.7178 22.7666 14.4511 22.5999C14.1844 22.4333 13.9178 22.2499 13.6678 22.0666C12.6844 21.2833 11.9511 20.2666 11.5678 19.1499C11.1844 18.0499 11.1344 16.8666 11.4678 15.8333C12.4844 17.7333 13.8844 18.8666 15.3344 19.4166C16.8011 19.9666 18.2511 19.9166 19.5511 19.4166C20.8344 18.9166 21.9511 17.9499 22.6511 16.5833C23.0011 15.8999 23.2344 15.1166 23.3178 14.2333C23.3678 13.7833 23.3511 13.3333 23.3178 12.8499C23.2678 12.3666 23.1844 11.8666 23.0511 11.3333" fill="#FF2D78"/>
<path d="M33.9648 23.25H37.5148V15.6667H46.3815V12.5H37.5148V8.16668H47.4315V4.93335H33.9648V23.25Z" fill="#00092B"/>
<path d="M53.1638 4.93335H49.7305V23.25H53.1638V4.93335Z" fill="#00092B"/>
<path d="M62.6159 23.4666C64.5992 23.4666 66.2992 22.7666 67.6992 21.3666C69.0992 19.95 69.7992 18.25 69.7992 16.2833C69.7992 14.3166 69.0826 12.65 67.6992 11.25C66.2992 9.8333 64.5826 9.1333 62.6159 9.1333C60.6492 9.1333 58.9492 9.8333 57.5492 11.2333C56.1492 12.6166 55.4492 14.3166 55.4492 16.2833C55.4492 18.25 56.1659 19.9166 57.5492 21.3333C58.9492 22.75 60.6326 23.45 62.6159 23.45M62.6159 20.35C61.5159 20.35 60.5659 19.95 59.7992 19.1666C59.0325 18.35 58.6325 17.4166 58.6325 16.2833C58.6325 15.15 59.0325 14.2166 59.7992 13.4333C60.5659 12.6166 61.5159 12.2333 62.6159 12.2333C63.7159 12.2333 64.6992 12.6333 65.4659 13.4333C66.2325 14.2166 66.6325 15.1666 66.6325 16.2833C66.6325 17.4 66.2325 18.35 65.4659 19.1666C64.6992 19.95 63.7492 20.35 62.6159 20.35Z" fill="#00092B"/>
<path d="M77.6154 23.4667C79.1654 23.4667 80.482 23.1334 81.6154 22.4501C82.7487 21.7667 83.332 20.7167 83.332 19.2834C83.332 17.1667 81.832 15.7501 78.832 15.0501C77.932 14.8667 77.032 14.6501 76.4654 14.5001C75.5987 14.2667 75.0654 13.9167 75.0654 13.3667C75.0654 12.8167 75.932 12.0667 77.3154 12.0667C78.6987 12.0667 80.7987 12.6167 82.6987 13.7501V10.6834C80.7987 9.66675 79.0154 9.16675 77.3154 9.16675C75.6154 9.16675 74.2487 9.53341 73.182 10.3001C72.0987 11.0667 71.582 12.0834 71.582 13.4167C71.582 15.6167 73.132 16.8001 76.482 17.5001C78.932 18.0167 79.882 18.4501 79.882 19.2501C79.882 20.0501 78.932 20.5334 77.6487 20.5334C76.3654 20.5334 75.6154 20.3001 74.532 19.8501C73.4487 19.3834 72.6154 18.8834 71.9487 18.3834V21.8334C73.8154 22.9334 75.7154 23.4834 77.6487 23.4834" fill="#00092B"/>
<path d="M91.1146 23.4833C92.7813 23.4833 94.1646 22.8833 95.2479 21.6833V23.25H98.6812V9.3833H95.2479V16.5333C95.2479 17.6 94.9313 18.5166 94.2813 19.25C93.6479 19.95 92.8312 20.3166 91.7979 20.3166C90.0812 20.3166 88.7146 19.0166 88.7146 17.05V9.3833H85.2812V17.95C85.2812 19.6 85.8646 20.9666 86.9979 21.9833C88.1646 23 89.5313 23.5 91.1146 23.5" fill="#00092B"/>
<path d="M101.613 23.2499H105.047V15.8999C105.047 13.7999 106.047 12.2332 108.047 12.2332C110.047 12.2332 110.547 13.4832 110.547 15.4832V23.2499H113.98V15.3666C114.163 13.4999 115.147 12.2332 116.963 12.2332C118.78 12.2332 119.497 13.4832 119.497 15.4832V23.2666H122.93V14.6999C122.93 12.9999 122.397 11.6332 121.347 10.6499C120.313 9.6499 119.08 9.1499 117.647 9.1499C116.213 9.1499 114.113 10.0332 113.03 11.4999C112.08 9.9999 110.447 9.1499 108.73 9.1499C107.013 9.1499 106.013 9.73324 105.047 10.8999V9.38324H101.613V23.2499Z" fill="#00092B"/>
</svg>
