<svg width="127" height="25" viewBox="0 0 127 25" fill="none" xmlns="http://www.w3.org/2000/svg">
<g clip-path="url(#clip0_421_1293)">
<path d="M23.2369 5.46118H25.1958L26.3442 5.7312L27.3574 6.13619L28.3031 6.74372L29.0461 7.35121L29.5866 7.89125L30.2621 8.83625L30.8024 9.98378L31.0727 11.1313L31.1402 11.6713V13.2238L30.87 14.3713L30.4647 15.2488L29.9918 16.0589L29.3163 16.8014L28.9786 17.1389L28.3031 17.7464L27.5601 18.2189L26.8846 18.5564L26.074 18.8264L24.9256 19.0289H23.2369L22.1561 18.8264L21.0753 18.4214L20.1296 17.8814L19.4541 17.3414L18.5084 16.3964L17.8329 15.3838L17.4951 14.6413L17.2249 13.8313L17.0898 13.1563V11.1988L17.3601 10.1187L17.6978 9.30876L18.0355 8.70124L18.5759 7.95874L19.5216 7.0137L20.5349 6.33869L21.5481 5.86621L22.8316 5.52871L23.2369 5.46118ZM23.1018 7.28373L22.1561 7.55375L21.2104 8.02622L20.5349 8.56623L19.9269 9.17375L19.319 10.1187L18.9812 11.1313L18.9137 11.5363V13.0213L19.1839 14.0338L19.5892 14.8438L20.3323 15.7213L21.0077 16.2614L21.8183 16.7339L22.8316 17.0714L23.9124 17.2064L25.1283 17.1389L25.9389 16.9364L27.0196 16.3964L27.7627 15.7888L28.3706 15.1138L28.911 14.1688L29.2488 13.1563L29.3163 12.6838V11.7388L29.1137 10.7938L28.776 9.98378L28.3031 9.24124L27.5601 8.43126L26.8846 7.95874L26.0064 7.55375L24.8581 7.28373H23.1018Z" fill="#0A0A0A"/>
<path d="M50.4609 5.86621H54.6488L55.9325 6.06871L56.8781 6.33873L57.959 6.87873L58.8371 7.55374L59.5127 8.29624L60.2556 9.51126L60.6608 10.5913L60.796 11.1988L60.8636 11.8063V12.4813L60.7284 13.4938L60.3908 14.5739L59.8503 15.6539L59.3775 16.2614L58.9047 16.8014L58.0266 17.4764L56.8781 18.0839L55.7973 18.4214L54.3788 18.6239H50.5285L50.4609 18.5564V5.86621ZM52.2847 7.55374L52.2171 7.62123V16.8689H53.0955L55.4597 16.6664L56.3377 16.3964L57.2158 15.8564L58.0266 15.1139L58.6343 14.1688L58.9047 13.4263L58.9723 13.0888V11.5363L58.7019 10.4563L58.2966 9.64627L57.7562 8.97126L57.2158 8.49874L56.2701 7.95874L55.2568 7.68875L53.906 7.55374H52.2847Z" fill="#0A0A0A"/>
<path d="M6.14704 5.46118H8.10597L9.45698 5.7312L10.6729 6.13619L10.9431 6.33869L11.0106 6.60871L10.9431 8.22872L9.86224 7.82373L8.44371 7.41874L8.03841 7.35121H6.34966L5.20134 7.62123L4.12051 8.16123L3.51259 8.63375L2.90464 9.24124L2.36424 10.1187L2.09404 10.8613L1.95894 11.6038V12.7513L2.16159 13.6963L2.49934 14.5063L2.97219 15.2488L3.58013 15.8564L4.52582 16.4638L5.53908 16.8689L6.48479 17.0714H8.10597L9.32185 16.8014L10.7404 16.1939H10.9431V18.0164L10.6729 18.2864L9.45698 18.7589L8.64636 18.9614L7.49801 19.0964L6.28213 19.0289L5.06621 18.7589L3.98542 18.3539L2.97219 17.8139L2.22914 17.2064L1.55364 16.5314L0.878145 15.5189L0.405299 14.5063L0.0675496 13.2913L0 12.8863V11.2663L0.270199 10.1187L0.607948 9.30876L1.08079 8.56623L1.62119 7.89125L2.02649 7.41874L2.76954 6.81121L3.71524 6.20372L4.45829 5.86621L5.33643 5.59619L6.14704 5.46118Z" fill="#0A0A0A"/>
<path d="M38.3019 5.86621H39.923V16.8689H44.1113V18.5564L44.0437 18.6239H38.3019L38.2344 18.5564V5.9337L38.3019 5.86621Z" fill="#0A0A0A"/>
<path d="M79.032 5.46118H80.7209L81.8014 5.66372L82.9499 6.06871L83.9631 6.6762L84.7064 7.28373L85.5168 8.09375L85.9897 8.76876L86.5301 9.84877L86.8001 10.9288L86.8677 11.4688V12.9538L86.6653 14.0338L86.3273 14.9789L85.7192 16.0589L84.8412 17.0714L84.7064 17.2739L85.4492 18.0839L86.3949 19.0964L86.4625 19.2314L84.1659 19.2989L83.4227 18.5564L83.2875 18.3539L82.477 18.5564L81.2613 18.8939L80.3829 19.0289H78.9644L77.8159 18.8264L76.7355 18.4214L75.7898 17.8814L74.8437 17.1389L74.3709 16.6664L73.6957 15.7213L73.2228 14.7764L72.8848 13.6288L72.75 12.6838V11.4013L72.9524 10.3213L73.3576 9.30876L73.9657 8.36373L74.7765 7.41874L75.587 6.74372L76.465 6.20372L77.4107 5.79869L78.4916 5.52871L79.032 5.46118ZM79.2348 7.21624L78.2216 7.41874L77.4107 7.75624L76.6002 8.22872L75.9246 8.83625L75.317 9.64627L74.8437 10.6588L74.6413 11.5363V12.8188L74.9113 13.8988L75.3842 14.8438L75.9246 15.5189L76.3974 15.9914L77.2759 16.5989L78.2892 17.0039L79.3696 17.2064H80.2481L81.3286 17.0039L81.8014 16.8014L81.6666 16.5314L80.6533 15.4513L80.1805 14.9113L79.1672 13.8313V13.6963H81.2613L82.0718 14.5063L82.5446 15.0463L83.2875 15.8564L83.5579 15.7213L84.0983 15.1138L84.6388 14.2363L84.9088 13.4938L85.044 12.6838V11.9413L84.9088 11.0638L84.5712 10.0513L83.9631 9.10627L83.2203 8.36373L82.2742 7.75624L81.1261 7.35121L80.2481 7.21624H79.2348Z" fill="#0B7BFA"/>
<path d="M67.4141 5.86621H69.035V18.6239H67.4141V5.86621Z" fill="#0B7BFA"/>
<path d="M107.115 0H110.369L111.837 0.127702L113.624 0.383106L115.666 0.830063L117.58 1.46858L118.665 1.97938L119.814 2.68174L120.643 3.32025L121.537 4.08647L122.302 4.85269L123.005 5.74658L123.898 6.95977L124.791 8.30063L125.557 9.57767L126.068 10.5993L126.45 11.7486L126.77 13.2172L126.961 15.1965V16.6013L126.77 18.1337L126.45 19.0915L125.876 20.3046L125.238 21.2624L124.728 21.9009L123.962 22.731L123.324 23.3695L122.43 23.9441L121.792 24.2634L120.835 24.5826L119.686 24.8381L118.41 24.9657H117.453L116.942 24.8381L116.24 24.3911L115.347 23.6249L114.709 23.0502L113.879 22.2202L113.369 21.5178L113.049 21.3262H112.411L111.773 21.4539H110.88L110.497 21.2624L109.859 20.6877L109.476 20.2408L109.029 19.283L108.518 18.006L108.072 17.1759L107.753 16.8567L106.732 16.3459L105.392 15.8989L103.732 15.5796L102.584 15.452H100.861L100.031 15.5158H98.6273L97.6699 15.3243L96.6492 14.9411L95.6282 14.3665L94.7345 13.6003L94.2241 13.0256L93.7138 12.1317L93.5223 11.4293L93.3945 10.0246V9.19456L93.5223 8.30063L93.8412 7.34288L94.4156 6.32127L94.99 5.61891L95.5641 4.98037L96.6492 3.89491L97.6699 3.1287L98.8825 2.36249L100.287 1.66013L101.754 1.08547L102.967 0.702363L104.626 0.319255L106.285 0.0638509L107.115 0Z" fill="#D8F0FF"/>
<path d="M107.115 0H110.37L111.837 0.127702L113.624 0.383106L115.666 0.830063L117.581 1.46857L118.666 1.97938L119.814 2.68174L120.644 3.32025L121.537 4.08647L122.303 4.85269L123.005 5.74658L123.898 6.95977L124.792 8.30063L125.558 9.57767L126.068 10.5993L126.451 11.7486L126.77 13.2172L126.898 14.4303V15.5796L126.515 15.452L125.43 14.8134L124.728 14.4303L123.898 13.9834L123.196 13.6003L121.728 12.7702L119.878 11.7486L118.41 10.9185L117.006 10.1523L115.475 9.51381L113.688 8.74759L112.092 8.04523L109.987 7.1513L105.839 5.36348L104.371 4.72498L102.712 4.02262L101.818 3.63951L101.563 3.57566L97.8618 3.3841L97.543 3.32025L97.8618 3.001L99.0107 2.29864L100.734 1.46857L102.329 0.893913L103.988 0.446958L105.775 0.127702L107.115 0Z" fill="#54BFFF"/>
<path d="M102.582 3.89483L101.561 3.51172L101.434 15.388L102.072 15.1965L104.369 14.4303L112.027 11.8124L113.686 11.2377L116.366 10.3438L117.005 10.1522V10.0884L115.473 9.44984L113.814 8.74749L112.793 8.30056L108.198 6.32116L105.965 5.36341L102.582 3.89483Z" fill="#BAE5FF"/>
<path d="M97.8614 3.3202L97.4788 3.25635L96.6492 3.89486L95.5641 4.98032L94.99 5.61882L94.4156 6.32118L93.8412 7.34283L93.5223 8.30058L93.3945 9.19447V10.0245L93.5223 11.4293L93.7138 12.1316L94.2241 13.0256L94.7345 13.6002L95.6282 14.3664L96.6492 14.9411L97.6699 15.3242L98.6273 15.5157H100.031L101.435 15.388L101.563 3.51175L97.8614 3.3202Z" fill="#8BD7FF"/>
<path d="M116.176 1.08545L116.686 1.1493L117.707 1.53241L118.728 2.04322L119.622 2.55402L120.643 3.32024L121.536 4.08645L122.302 4.85266L123.004 5.74655L123.897 6.95974L124.791 8.3006L125.557 9.57764L126.067 10.5992L126.45 11.7486L126.769 13.2171L126.897 14.4303V15.5796L126.514 15.4519L125.429 14.8134L124.727 14.4303L123.897 13.9834L123.196 13.6003L121.728 12.7702L119.877 11.7486L118.409 10.9185L117.005 10.1523L116.878 9.51378L116.75 7.91753L116.495 4.46955L116.239 1.91551V1.34085L116.176 1.08545Z" fill="#0B7BFA"/>
<path d="M127.001 15.5081L116.994 10.1572L114.964 16.2819L114.708 16.5373L114.262 17.4312L113.879 18.4529L113.815 18.9636H113.687L113.624 19.2829L113.432 19.7299L112.986 20.943L112.922 21.2623L113.369 21.5177L113.879 22.2201L114.964 23.3055H115.219L115.155 22.6032L115.219 22.7947L115.538 23.3055L115.793 23.4332L126.897 16.8566L127.001 15.5081Z" fill="#BAE5FF"/>
<path d="M121.152 7.91748L121.407 8.10902H124.151L124.534 8.17287L124.598 7.98134L125.555 9.57759L126.065 10.5992L126.448 11.7485L126.768 13.2171L126.895 14.4303L126.999 15.6934L126.512 15.4519L125.427 14.8134L124.726 14.4303L123.896 13.9833L123.194 13.6002L121.726 12.7702L119.876 11.7485L118.408 10.9185L117.004 10.1523L117.068 10.0246L117.451 9.89684L117.706 9.70531L119.046 9.00295L120.067 8.49212L121.152 7.91748Z" fill="#54BFFF"/>
<path d="M121.152 7.91748L121.407 8.10902H124.151L124.534 8.17287L124.598 7.98134L125.555 9.57759L126.065 10.5992L126.13 10.9185L125.874 10.6631V10.5354L118.909 9.87679L118.717 10.0045H118.334L118.206 10.2599L117.823 10.1322L117.004 10.1523L117.068 10.0246L117.451 9.89684L117.706 9.70531L119.046 9.00295L120.067 8.49212L121.152 7.91748Z" fill="#2DA0FF"/>
<path d="M104.945 0.255371H105.52L105.456 0.510774L104.754 1.08543L104.307 1.53239L103.414 2.1709L102.712 2.74556L102.329 3.06482H102.201L102.138 3.25637L101.755 3.57562L97.8618 3.38407L97.543 3.32022L97.8618 3.00097L99.0107 2.2986L100.734 1.46854L102.329 0.893883L103.988 0.446924L104.945 0.255371Z" fill="#0B7BFA"/>
<path d="M97.8618 3.38399L101.755 3.57554L102.329 0.893799L100.734 1.46846L99.0107 2.29852L97.8618 3.00089L97.543 3.32014L97.8618 3.38399Z" fill="#2DA0FF"/>
<path d="M99.3936 2.10693L99.7125 2.23463L100.67 2.87315L101.372 3.3201L101.563 3.51165H100.414L97.8618 3.38395L97.543 3.3201L97.8618 3.00085L99.0107 2.29849L99.3936 2.10693Z" fill="#54BFFF"/>
<path d="M126.885 16.8567H126.63L124.652 17.4952L121.728 18.5168L119.558 19.2192L118.474 19.5384L117.07 20.0493L116.431 20.2408L112.93 21.2192L115.059 23.3695L115.314 23.6249L116.207 24.3911L116.909 24.8381L117.42 24.9658H118.665L119.941 24.8381L121.09 24.5827L122.047 24.2634L122.685 23.9442L123.579 23.3695L124.153 22.7948L124.779 21.8371L125.417 21.007L125.992 20.0493L126.566 18.7722L126.821 17.8145L126.885 16.8567Z" fill="#D8F0FF"/>
</g>
<defs>
<clipPath id="clip0_421_1293">
<rect width="127" height="24.9658" fill="white"/>
</clipPath>
</defs>
</svg>
