<svg width="48" height="49" viewBox="0 0 48 49" fill="none" xmlns="http://www.w3.org/2000/svg">
<path d="M21.8802 41.9576L21.8651 34.9235L21.4128 36.1358C20.4798 38.6297 19.0911 42.2986 17.8649 45.5049C17.5651 46.2968 17.2167 47.2069 17.0944 47.5328C16.9721 47.8586 16.8582 48.1406 16.8398 48.1608C16.8197 48.1862 16.3004 47.9971 15.6823 47.7506C15.0592 47.504 14.235 47.1765 13.8464 47.0228C13.4628 46.8692 13.1345 46.7206 13.1244 46.6919C13.1093 46.6615 13.374 45.9355 13.714 45.0795C14.0474 44.2234 14.7794 42.3695 15.3288 40.9546C15.8833 39.5397 16.8163 37.181 17.3942 35.7154C17.9789 34.2465 18.4445 33.0342 18.4295 33.0241C18.4194 33.0139 18.0961 33.3364 17.7125 33.7366C17.3256 34.1418 16.4914 35.008 15.8532 35.6614C15.2149 36.3148 13.9536 37.6149 13.0557 38.5554C9.67036 42.0774 8.42241 43.3539 8.37383 43.3539C8.31017 43.3539 5.54626 40.5781 5.54626 40.5139C5.54626 40.4886 7.0572 38.9403 8.89813 37.0763C12.8246 33.1034 15.4059 30.4728 15.3908 30.4576C15.3858 30.4475 14.9938 30.6265 14.5214 30.8443C14.0507 31.0672 12.4644 31.7983 10.9937 32.4719C9.52127 33.149 7.5145 34.0743 6.52787 34.5251C4.04537 35.6732 2.70026 36.281 2.64666 36.281C2.62153 36.281 2.60311 36.2608 2.60311 36.2371C2.60311 36.1831 1.93977 34.5504 1.43054 33.3584C1.23957 32.9025 1.08211 32.5023 1.08211 32.4686C1.08211 32.4297 1.26805 32.325 1.48916 32.2305C1.91129 32.0532 5.54291 30.4543 7.26491 29.6928C7.81937 29.4463 8.96849 28.9414 9.81609 28.5649C13.1144 27.1213 14.0122 26.7194 14.0558 26.6755C14.0859 26.6553 11.0573 26.6367 7.33191 26.6316C3.61152 26.6316 0.442227 26.6266 0.294818 26.6215L0.0251265 26.6114L0.0100506 24.5245L0 22.4325H7.01365C10.8764 22.4325 14.0407 22.4123 14.0558 22.3886C14.0708 22.3684 14.0206 22.3194 13.9486 22.2839C13.6336 22.1353 12.1679 21.4769 10.4543 20.7154C9.44254 20.2646 8.3487 19.78 8.02541 19.6365C6.87629 19.1215 2.80914 17.3166 1.96489 16.94C1.24292 16.6226 1.10557 16.545 1.10557 16.4555C1.10557 16.3322 2.61148 12.7358 2.66676 12.7358C2.68686 12.7358 3.48086 13.0921 4.43399 13.5227C5.38042 13.9532 6.6133 14.5121 7.16776 14.7637C8.41905 15.3327 13.9553 17.8754 14.7493 18.2469C15.0675 18.3955 15.3422 18.5086 15.3523 18.4985C15.3623 18.4883 15.0826 18.1962 14.7342 17.845C12.8296 15.9354 5.57138 8.51139 5.55631 8.4658C5.55128 8.43034 6.18447 7.76341 6.97009 6.97154L8.39393 5.53637L8.56144 5.71028C8.65022 5.80483 9.01707 6.19486 9.37554 6.57645C9.73903 6.95803 10.5732 7.8377 11.2349 8.52996C11.8982 9.22222 13.5465 10.9495 14.8967 12.3644C18.0124 15.6383 18.3474 15.981 18.3759 15.9506C18.3859 15.9354 18.1648 15.3377 17.885 14.6151C14.2149 5.24596 13.0809 2.30302 13.1244 2.26419C13.1596 2.22873 16.7661 0.864477 16.8297 0.864477C16.8549 0.864477 17.0056 1.2258 17.1681 1.66648C17.3356 2.11223 17.8214 3.41739 18.2569 4.57565C18.6941 5.73392 19.3374 7.43417 19.6808 8.35943C20.0292 9.28469 20.5686 10.7182 20.8835 11.5506C21.1984 12.3813 21.5468 13.2964 21.654 13.5936C21.7663 13.8857 21.8651 14.1136 21.8751 14.1035C21.8852 14.0933 21.9003 10.9174 21.9053 7.04414L21.9153 0H23.9037H25.892L25.9172 7.07284C25.9373 12.9452 25.9523 14.1221 26.0059 13.9988C26.1684 13.6223 27.0562 11.2838 29.0345 6.03446C29.5638 4.61955 30.1585 3.051 30.3444 2.54784C30.919 1.00968 30.9776 0.866166 31.0312 0.866166C31.0564 0.866166 31.6008 1.06371 32.239 1.30685C32.8772 1.54998 33.7164 1.86065 34.0983 2.00417L34.7952 2.26081L34.6964 2.51239C34.6377 2.6559 34.5104 2.9919 34.4066 3.26374C34.0682 4.15354 32.306 8.64646 30.5002 13.217C29.5488 15.6214 29.4851 15.7936 29.5086 15.8493C29.5236 15.8932 30.3126 15.0828 34.2843 10.9579C35.5557 9.63757 37.2526 7.87654 38.0633 7.0357L39.5357 5.5178L40.9679 6.96141C41.7586 7.75835 42.4052 8.43541 42.4052 8.4658C42.4052 8.49619 40.1622 10.7654 37.4234 13.5108C34.6846 16.2512 32.4517 18.5069 32.4618 18.512C32.4718 18.5221 32.6929 18.4276 32.9626 18.2992C33.2273 18.176 34.2977 17.6813 35.3379 17.2068C36.3782 16.7273 37.6345 16.1482 38.1353 15.9202C38.6362 15.6872 39.6513 15.2229 40.3934 14.8818C41.1338 14.5458 42.1941 14.0562 42.7486 13.8029C43.303 13.5514 44.0736 13.1951 44.4605 13.0161C44.8525 12.8388 45.1825 12.6987 45.1925 12.7139C45.2177 12.7392 46.7671 16.3356 46.8023 16.4487C46.8224 16.5027 46.6063 16.6226 45.9782 16.9046C44.0987 17.7505 36.5993 21.1088 35.2642 21.698C34.4836 22.0492 33.8354 22.3565 33.827 22.3852C33.8119 22.4207 36.0113 22.4342 40.9043 22.4342H48V24.5076V26.5759L47.804 26.6114C47.6968 26.6266 44.5057 26.6418 40.7083 26.6367C36.9142 26.6367 33.7985 26.6468 33.7834 26.662C33.7583 26.6874 33.8957 26.7515 34.9459 27.2108C35.3379 27.3796 36.884 28.0618 38.3816 28.7202C42.7151 30.6248 42.8909 30.7041 44.4957 31.4065C45.3349 31.7729 46.1993 32.1478 46.4103 32.2372C46.6214 32.3217 46.8124 32.4112 46.8375 32.4297C46.8676 32.4551 46.5963 33.1068 45.4974 35.6209C45.355 35.9467 45.2227 36.2338 45.2026 36.254C45.1641 36.303 44.1573 35.8539 39.534 33.7163C39.0784 33.5036 37.8857 32.9599 36.8891 32.504C35.8974 32.0532 34.5724 31.4403 33.9442 31.1431C32.6728 30.5454 32.4433 30.4458 32.4433 30.4796C32.4433 30.4948 34.6863 32.7607 37.4301 35.5094L42.4169 40.5156L41.0182 41.9255C40.2476 42.7021 39.586 43.3404 39.5508 43.3505C39.4821 43.3657 38.2308 42.1044 34.3094 38.0674C30.6342 34.2836 29.5337 33.1709 29.5052 33.1996C29.4751 33.23 29.4751 33.23 30.398 35.5196C30.8151 36.5529 31.507 38.2987 31.9442 39.403C32.3763 40.5055 33.033 42.1737 33.4015 43.1124C34.6578 46.2985 34.8052 46.6885 34.765 46.724C34.6763 46.8034 31.0597 48.2183 31.0312 48.1828C31.0162 48.1676 30.924 47.9397 30.8202 47.678C30.0011 45.5066 27.8804 39.9517 27.2874 38.3933C26.8803 37.3296 26.4281 36.1426 26.2756 35.7475C26.1282 35.3524 25.9858 35.0063 25.9607 34.9809C25.9356 34.9506 25.9172 37.6959 25.9172 41.966V49H23.9054H21.8936L21.8835 41.966L21.8802 41.9576Z" fill="#E45131"/>
</svg>
